<svg width="738" height="267" viewBox="0 0 738 267" fill="none" xmlns="http://www.w3.org/2000/svg">
<g clip-path="url(#clip0_1_209)">
<path d="M32.9762 71.9397C24.5752 78.1861 34.166 83.4393 40.6271 84.3518C42.7446 84.6425 42.4179 82.0947 42.3977 81.1135C40.5102 72.1618 46.6043 52.4938 33.2666 52.0416C41.7443 43.8005 52.3273 39.7991 61.2568 32.3252C64.2857 51.8478 62.4587 71.1766 63.7331 90.8203C63.8582 95.6293 70.041 99.9295 77.3007 100.345C83.1246 100.676 84.3305 96.5701 84.4434 92.3547C84.5967 81.8969 86.4197 7.65039 67.5404 18.7866C51.0609 26.6481 35.0856 37.8246 16.5411 39.686C1.19491 41.0023 -7.44816 9.98018 10.693 11.6478C15.2626 12.6613 19.1183 15.0678 19.9814 20.2644C20.3766 22.6426 18.2713 23.4017 16.6621 24.1285C13.9276 25.3641 13.1694 22.8284 12.1046 21.2577C11.1205 19.8041 11.5803 16.4204 8.42234 18.0921C6.24443 19.2469 4.97802 21.1688 5.81692 24.2658C8.05935 32.5392 13.8187 35.3777 22.5142 31.2875C40.4698 23.0827 56.5218 11.2279 73.574 1.30706C76.0141 -0.235365 78.0186 -0.00521207 79.4383 2.13077C88.4363 15.6734 97.9545 28.9254 105.263 43.4896C107.719 48.3793 105.864 54.0887 105.702 59.4065C105.359 70.5669 105.658 81.7515 104.23 92.8796C102.927 103.786 89.0291 104.662 81.1362 109.237C74.2516 112.846 63.1161 98.1327 63.4387 111.498C63.2855 126.478 62.3659 141.539 63.5436 156.422C64.4712 168.119 58.0867 174.241 50.2543 180.059C41.8089 185.53 33.5207 177.253 26.5353 172.839C34.8517 175.452 43.0511 155.744 42.8131 148.863C42.4864 131.477 41.9258 114.086 41.9662 96.7033C41.9783 91.7288 39.5503 89.1931 36.0051 86.9642C33.7627 85.5591 31.1815 84.6627 29.0641 83.1041C27.5032 81.9574 23.6153 82.1109 25.0067 78.9533C26.3255 75.9613 27.0636 71.5279 32.9762 71.9357V71.9397Z" fill="white"/>
<path d="M393.718 98.6892C360.15 109.551 357.443 82.1384 371.531 81.8719C374.935 82.9097 373.947 85.4777 372.886 87.8801C372.806 99.7835 406.83 85.8572 413.997 83.8949C406.487 100.837 392.955 114.384 391.733 134.044C390.165 144.627 396.097 166.431 409.124 151.85C420.393 137.157 415.586 117.324 421.651 100.635C423.825 86.2973 432.739 87.3633 445.221 87.5208C434.586 106.793 433.118 128.028 432.743 149.25C432.654 153.227 434.429 155.707 438.95 153.143C443.834 150.373 449.811 150.288 453.949 145.346C470.061 128.573 448.875 69.9928 487.142 85.409C471.719 109.619 489.776 162.72 447.992 164.319C432.88 163.435 416.775 151.608 401.897 161.852C396.194 165.591 386.527 162.203 381.025 155.42C363.497 136.935 376.988 114.78 393.714 98.6892H393.718Z" fill="white"/>
<path d="M684.469 60.5526C700.311 50.4057 713.632 40.0851 724.171 25.0929C717.73 70.0534 720.505 113.5 723.251 157.96C723.477 166.12 732.221 161.925 737.492 163.709C731.89 165.401 704.469 183.394 703.896 172.56C704.183 168.276 701.464 169.193 699.137 169.447C686.179 175.839 674.946 170.889 665.416 162.139C658.535 153.886 660.29 124.071 659.531 112.131C659.798 104.77 663.391 101.177 669.296 98.9356C677.318 97.4053 686.796 90.1009 694.515 94.9786C697.911 97.5102 699.706 96.8238 699.669 92.4146C697.883 83.6486 705.183 59.0949 690.7 60.9442C689.232 61.1502 687.679 60.7787 684.464 60.5526H684.469ZM680.246 120.881C680.613 130.777 676.297 168.159 689.708 164C694.378 162.724 702.049 165.409 702.884 156.502C703.985 144.752 702.626 133.144 701.339 121.543C702.606 94.0781 675.543 90.8156 680.25 120.877L680.246 120.881Z" fill="white"/>
<path d="M653.47 180.139C646.948 181.573 641.41 183.26 635.756 183.914C629.198 184.674 618.942 173.852 618.966 166.148C619.01 151.923 619.595 137.702 619.845 123.477C620.236 101.342 620.595 79.2031 620.825 57.068C620.878 52.1702 619.357 48.1001 612.767 48.0678C624.709 42.2696 635.308 34.6382 647.98 30.6005C633.074 40.6303 642.85 135.07 639.967 159.813C639.926 168.938 644.27 176.109 653.47 180.143V180.139Z" fill="white"/>
<path d="M552.112 139.487C551.628 148.136 553.713 157.721 548.789 165.845C542.804 174.103 520.581 178.314 512.063 172.552C500.818 163.471 490.861 161.84 494.027 145.354C493.861 138.502 494.515 131.617 495.047 124.765C495.39 120.372 491.792 121.668 489.784 120.453C488.376 119.601 484.936 120.917 485.613 117.566C486.267 114.324 489.082 115.781 490.457 116.435C494.192 118.204 496.003 117.368 496.059 113.274C496.983 109.046 518.927 101.334 524.102 97.8696C534.899 94.5708 548.986 110.298 550.846 120.162C551.785 126.55 551.616 132.962 552.104 139.495L552.112 139.487ZM532.362 140.432C532.112 133.834 533.047 125.367 529.071 119.956C524.622 117.38 512.986 122.221 512.539 127.305C511.502 139.144 511.038 151.043 512.196 162.91C512.035 175.342 530.144 174.389 531.216 162.635C532.293 155.266 532.951 147.877 532.358 140.428L532.362 140.432ZM516.483 116.27C521.254 114.505 531.18 110.443 528.853 103.829C528.212 102.969 527.256 103.078 526.473 103.518C522.88 105.045 504.969 114.227 516.487 116.27H516.483Z" fill="white"/>
<path d="M158.104 135.881C155.987 148.624 160.432 168.313 143.96 171.955C137.846 173.654 131.603 178.512 125.149 173.772C117.672 168.28 107.028 165.131 105.472 154.439C102.374 146.202 112.215 121.18 100.289 120.784C99.1396 120.687 98.2321 119.742 98.333 118.486C98.9944 114.659 104.145 119.98 106.06 116.254C113.026 105.977 124.835 103.829 135.055 99.0164C152.039 99.7028 159.907 120.97 157.83 135.861L158.104 135.881ZM140.467 133.773C138.923 128.44 140.617 118.172 132.006 119.625C127.174 120.558 122.423 120.853 121.975 127.66C122.693 136.769 118.475 173.739 131.679 172.072C145.287 170.287 138.778 143.969 140.467 133.773ZM124.996 117.707C128.945 116.556 139.197 108.86 136.055 104.645C130.735 104.411 120.983 109.45 122.842 115.749C123.048 116.811 123.375 117.937 125 117.707H124.996Z" fill="white"/>
<path d="M551.777 91.1265C560.001 85.611 567.402 80.7333 574.71 75.7144C579.501 72.4236 581.518 73.2958 582.385 79.2757C583.213 84.9797 586.238 86.3095 591.46 83.265C596.525 79.9944 602.991 82.2112 603.676 88.3082C604.805 94.599 612.339 100.688 607.851 106.555C604.172 111.36 596.731 113.274 590.185 116.896C592.855 110.06 591.746 96.097 584.248 94.3204C582.062 94.9826 583.042 96.9773 583.111 98.342C584.704 120.041 582.567 142.539 588.503 163.673H558.493C563.748 159.639 564.603 154.77 564.571 149.242C564.478 134.201 565.151 119.153 564.849 104.12C564.603 91.7766 564.175 91.7887 551.781 91.1225L551.777 91.1265Z" fill="white"/>
<path d="M294.704 148.144C310.187 159.03 276.558 178.043 267.621 167.901C262.947 162.248 253.618 158.622 252.146 151.192C252.65 138.595 252.997 125.993 253.682 113.407C254.582 105.178 263.297 101.596 269.053 96.9974C274.288 93.0243 279.023 87.8681 286.403 93.5613C300.6 100.397 301.028 104.261 306.831 118.624C312.861 128.589 270.206 127.539 283.124 139.782C286.202 144.93 275.962 144.437 274.897 139.652C266.673 120.986 293.111 119.237 284.415 110.754C281.87 108.267 282.152 101.661 277.974 101.35C275.808 101.73 273.634 102.848 273.199 105.436C270.428 121.886 269.214 138.441 271.42 155.028C272.182 160.75 278.418 165.276 283.85 165.32C291.239 163.81 290.856 154.164 294.708 148.144H294.704Z" fill="white"/>
<path d="M239.554 54.1972C243.854 62.4665 234.065 77.701 247.318 78.3107C249.992 78.2622 251.888 78.7629 251.924 82.304C251.601 90.2948 240.179 80.0469 240.062 98.7418C239.849 122.702 235.828 146.424 235.63 170.408C235.384 176.646 241.631 177.906 244.717 181.851C236.638 179.154 228.979 175.782 222.349 170.521C215.113 153.797 224.652 125.181 222.982 106.119C226.527 72.892 214.496 92.5721 207.184 84.331C206.131 81.3955 211.181 79.4655 213.633 77.7535C223.123 71.1315 230.713 62.4988 239.55 54.1931L239.554 54.1972Z" fill="white"/>
<path d="M193.31 179.897C184.59 177.922 177.121 174.062 170.829 168.551C166.618 164.864 169.216 159.127 169.583 154.616C171.305 133.358 172.378 112.095 172.309 90.7712C173.156 79.5987 162.908 84.4965 155.535 82.4171C168.893 74.5394 178.101 62.6683 187.901 50.8215C192.749 55.3802 184.074 78.6216 194.75 75.8718C198.295 75.0279 200.489 76.0576 200.743 80.4628C201.005 89.4589 190.108 79.4574 189.95 89.5437C187.809 104.633 188.777 119.875 187.434 135.001C188.559 148.709 178.859 171.87 193.314 179.893L193.31 179.897Z" fill="white"/>
<path d="M306.166 87.8197C313.228 83.2408 320.29 78.8276 327.171 74.1518C333.003 70.1867 335.152 70.4694 335.41 77.1519C335.705 84.8761 338.576 84.1978 343.703 81.5894C351.228 76.8935 351.273 86.6204 353.987 91.5627C355.37 95.3985 359.674 99.4484 357.254 103.078C353.967 108.008 348.224 110.677 341.948 112.026C344.033 103.749 340.835 97.2236 336.552 90.9045C333.716 114.251 332.676 137.436 338.197 160.677H311.703C322.379 141.013 315.749 118.6 318.027 97.4053C319.161 88.4415 313.309 88.1104 306.17 87.8237L306.166 87.8197Z" fill="white"/>
<path d="M148.852 243.803H152.159C152.95 249.181 155.1 253.417 158.608 256.502C162.113 259.591 166.441 261.129 171.587 261.129C173.68 261.129 175.604 260.875 177.355 260.366C179.109 259.857 180.605 259.134 181.852 258.202C183.094 257.269 184.058 256.163 184.735 254.891C185.413 253.615 185.752 252.185 185.752 250.603C185.752 249.242 185.538 248.071 185.114 247.078C184.691 246.088 183.884 245.123 182.695 244.191C181.505 243.258 179.879 242.309 177.814 241.344C175.749 240.383 173.075 239.277 169.796 238.033C163.178 235.485 158.286 232.526 155.12 229.158C151.95 225.791 150.369 221.809 150.369 217.226C150.369 214.566 150.877 212.131 151.897 209.922C152.914 207.713 154.341 205.816 156.18 204.233C158.02 202.65 160.222 201.419 162.799 200.538C165.372 199.662 168.215 199.222 171.325 199.222C174.209 199.222 176.923 199.674 179.468 200.583C182.013 201.491 184.53 202.848 187.018 204.661L188.547 200.413H190.583L191.515 218.761H188.208C186.849 214.117 184.731 210.564 181.844 208.101C178.96 205.638 175.62 204.407 171.833 204.407C168.324 204.407 165.485 205.271 163.307 206.999C161.129 208.727 160.04 210.948 160.04 213.665C160.04 214.856 160.238 215.914 160.633 216.851C161.028 217.784 161.762 218.676 162.839 219.528C163.912 220.376 165.384 221.24 167.252 222.12C169.119 223 171.523 223.974 174.463 225.052C178.419 226.582 181.803 228.124 184.602 229.679C187.401 231.237 189.692 232.905 191.475 234.69C193.257 236.474 194.572 238.356 195.419 240.339C196.266 242.321 196.694 244.502 196.694 246.88C196.694 249.767 196.073 252.399 194.826 254.778C193.58 257.156 191.842 259.195 189.607 260.895C187.373 262.595 184.715 263.923 181.634 264.888C178.552 265.849 175.144 266.334 171.41 266.334C168.018 266.334 164.961 265.865 162.246 264.933C159.532 264 156.733 262.486 153.845 260.39L152.147 265.486H150.111L148.836 243.827L148.852 243.803Z" fill="#FC9700"/>
<path d="M220.832 229.279C224.45 229.279 227.366 229.166 229.572 228.939C231.778 228.713 233.488 228.249 234.706 227.538C235.92 226.832 236.783 225.798 237.295 224.437C237.804 223.077 238.199 221.239 238.485 218.918H241.623V243.802H238.485C238.146 241.537 237.691 239.724 237.126 238.368C236.561 237.007 235.654 235.977 234.412 235.267C233.166 234.56 231.484 234.108 229.362 233.906C227.241 233.708 224.397 233.607 220.836 233.607V251.103C220.836 252.916 221.074 254.446 221.558 255.69C222.038 256.937 222.845 257.939 223.978 258.706C225.107 259.469 226.608 260.01 228.475 260.321C230.342 260.632 232.633 260.789 235.347 260.789C238.57 260.789 241.3 260.563 243.535 260.111C245.769 259.659 247.62 258.867 249.092 257.733C250.561 256.602 251.75 255.088 252.654 253.19C253.557 251.293 254.319 248.902 254.945 246.011H258.341L256.981 265.461H199.46V262.065C201.328 262.009 202.852 261.839 204.042 261.557C205.228 261.274 206.135 260.793 206.756 260.111C207.377 259.433 207.801 258.468 208.031 257.224C208.257 255.98 208.37 254.365 208.37 252.383V213.144C208.37 211.161 208.269 209.562 208.071 208.347C207.874 207.132 207.49 206.166 206.926 205.46C206.361 204.753 205.554 204.269 204.506 204.014C203.457 203.76 202.086 203.578 200.392 203.461V200.065H254.009L254.602 216.713H250.956C250.617 214.335 250.077 212.369 249.343 210.81C248.609 209.251 247.588 208.008 246.289 207.075C244.987 206.142 243.305 205.492 241.24 205.121C239.175 204.753 236.642 204.568 233.645 204.568H224.059C222.587 204.568 221.683 204.753 221.344 205.121C221.006 205.488 220.836 206.352 220.836 207.713V229.287L220.832 229.279Z" fill="#FC9700"/>
<path d="M304.778 245.672H280.769C278.111 251.676 276.78 255.835 276.78 258.157C276.78 259.857 277.417 260.931 278.688 261.383C279.962 261.835 281.87 262.061 284.415 262.061V265.457H261.168V262.061C262.527 261.892 263.697 261.666 264.689 261.383C265.677 261.1 266.556 260.705 267.318 260.192C268.081 259.683 268.746 259.017 269.311 258.197C269.875 257.378 270.416 256.372 270.924 255.181L293.235 199.209H299.515L319.79 248.813C320.98 251.7 321.98 253.966 322.803 255.609C323.621 257.252 324.501 258.512 325.432 259.388C326.364 260.269 327.441 260.874 328.655 261.213C329.869 261.553 331.442 261.807 333.361 261.977V265.457H301.294V261.977C304.008 261.863 305.96 261.581 307.146 261.129C308.336 260.676 308.928 259.768 308.928 258.411C308.928 257.62 308.731 256.598 308.336 255.355C307.94 254.111 307.404 252.581 306.722 250.768L304.77 245.672H304.778ZM282.721 240.576H302.911L293.155 214.84H292.816L282.721 240.576Z" fill="#FC9700"/>
<path d="M336.37 243.803H339.677C340.468 249.181 342.617 253.416 346.126 256.501C349.631 259.59 353.959 261.129 359.105 261.129C361.198 261.129 363.122 260.874 364.872 260.365C366.627 259.857 368.123 259.134 369.369 258.201C370.612 257.269 371.576 256.162 372.253 254.89C372.931 253.614 373.27 252.185 373.27 250.602C373.27 249.241 373.056 248.07 372.632 247.077C372.209 246.088 371.402 245.123 370.212 244.19C369.023 243.257 367.397 242.309 365.332 241.344C363.267 240.383 360.593 239.276 357.314 238.033C350.696 235.485 345.804 232.525 342.638 229.158C339.468 225.79 337.887 221.809 337.887 217.226C337.887 214.565 338.395 212.13 339.415 209.922C340.432 207.713 341.859 205.815 343.698 204.232C345.538 202.65 347.74 201.418 350.317 200.538C352.89 199.662 355.733 199.222 358.843 199.222C361.727 199.222 364.441 199.674 366.986 200.582C369.531 201.491 372.047 202.847 374.536 204.66L376.065 200.413H378.101L379.033 218.76H375.726C374.367 214.117 372.249 210.564 369.361 208.101C366.478 205.638 363.138 204.406 359.351 204.406C355.842 204.406 353.003 205.27 350.825 206.998C348.647 208.726 347.558 210.947 347.558 213.665C347.558 214.856 347.756 215.914 348.151 216.85C348.546 217.783 349.28 218.676 350.357 219.527C351.43 220.375 352.902 221.24 354.769 222.12C356.637 223 359.041 223.973 361.981 225.051C365.937 226.581 369.321 228.124 372.12 229.678C374.919 231.237 377.21 232.905 378.993 234.689C380.775 236.474 382.09 238.356 382.937 240.338C383.784 242.321 384.211 244.501 384.211 246.879C384.211 249.766 383.59 252.399 382.344 254.777C381.098 257.155 379.36 259.195 377.125 260.894C374.891 262.594 372.233 263.923 369.152 264.888C366.07 265.849 362.662 266.333 358.928 266.333C355.536 266.333 352.479 265.865 349.764 264.932C347.05 263.999 344.251 262.485 341.363 260.39L339.665 265.485H337.628L336.354 243.827L336.37 243.803Z" fill="#FC9700"/>
<path d="M425.644 199.209C430.734 199.209 435.485 200.09 439.897 201.842C444.31 203.599 448.141 206.005 451.392 209.062C454.643 212.118 457.204 215.716 459.071 219.847C460.938 223.981 461.87 228.455 461.87 233.268C461.87 238.081 460.922 242.159 459.027 246.177C457.131 250.198 454.558 253.695 451.307 256.667C448.052 259.639 444.225 261.989 439.813 263.717C435.4 265.445 430.678 266.309 425.644 266.309C420.611 266.309 415.888 265.445 411.476 263.717C407.063 261.989 403.216 259.639 399.937 256.667C396.658 253.695 394.085 250.198 392.217 246.177C390.35 242.155 389.418 237.855 389.418 233.268C389.418 228.455 390.35 223.981 392.217 219.847C394.085 215.712 396.642 212.118 399.896 209.062C403.147 206.005 406.979 203.599 411.391 201.842C415.803 200.09 420.554 199.209 425.644 199.209ZM425.644 260.789C428.923 260.789 431.892 260.151 434.553 258.88C437.211 257.604 439.474 255.795 441.341 253.445C443.209 251.095 444.636 248.236 445.624 244.864C446.613 241.497 447.109 237.718 447.109 233.526C447.109 229.109 446.613 225.132 445.624 221.595C444.632 218.058 443.205 215.025 441.341 212.506C439.474 209.986 437.211 208.06 434.553 206.732C431.896 205.403 428.923 204.737 425.644 204.737C422.365 204.737 419.324 205.403 416.695 206.732C414.065 208.064 411.814 209.99 409.951 212.506C408.084 215.025 406.656 218.058 405.668 221.595C404.676 225.136 404.184 229.113 404.184 233.526C404.184 237.94 404.68 241.497 405.668 244.864C406.656 248.236 408.088 251.095 409.951 253.445C411.818 255.795 414.065 257.608 416.695 258.88C419.324 260.156 422.309 260.789 425.644 260.789Z" fill="#FC9700"/>
<path d="M518.008 266.309L480.423 212.716H480.084V249.237C480.084 252.068 480.181 254.305 480.382 255.948C480.58 257.591 481.003 258.863 481.657 259.772C482.306 260.68 483.214 261.274 484.371 261.557C485.529 261.839 487.045 262.009 488.908 262.065V265.461H463.713V262.065C465.806 262.009 467.488 261.827 468.763 261.512C470.037 261.201 471.025 260.62 471.731 259.772C472.437 258.924 472.905 257.721 473.131 256.162C473.357 254.604 473.469 252.496 473.469 249.835V215.692C473.469 213.313 473.357 211.347 473.131 209.788C472.905 208.234 472.481 206.998 471.856 206.094C471.235 205.189 470.344 204.551 469.182 204.184C468.021 203.817 466.48 203.578 464.56 203.461V200.065H488.231L522.42 249.157H522.759V216.285C522.759 213.511 522.658 211.286 522.46 209.619C522.263 207.951 521.839 206.659 521.186 205.755C520.536 204.85 519.629 204.257 518.472 203.97C517.31 203.687 515.798 203.518 513.934 203.461V200.065H539.129V203.461C537.036 203.518 535.354 203.703 534.08 204.014C532.805 204.325 531.817 204.907 531.111 205.755C530.406 206.603 529.938 207.822 529.712 209.405C529.486 210.992 529.373 213.087 529.373 215.692V266.313H518.004L518.008 266.309Z" fill="#FC9700"/>
<path d="M542.041 243.803H545.348C546.139 249.181 548.289 253.416 551.797 256.501C555.302 259.59 559.63 261.129 564.776 261.129C566.869 261.129 568.793 260.874 570.544 260.365C572.298 259.857 573.794 259.134 575.041 258.201C576.283 257.269 577.247 256.162 577.924 254.89C578.602 253.614 578.941 252.185 578.941 250.602C578.941 249.241 578.727 248.07 578.303 247.077C577.88 246.088 577.073 245.123 575.884 244.19C574.694 243.257 573.068 242.309 571.003 241.344C568.938 240.383 566.264 239.276 562.985 238.033C556.367 235.485 551.475 232.525 548.309 229.158C545.139 225.79 543.558 221.809 543.558 217.226C543.558 214.565 544.066 212.13 545.086 209.922C546.103 207.713 547.53 205.815 549.37 204.232C551.209 202.65 553.411 201.418 555.988 200.538C558.561 199.662 561.404 199.222 564.514 199.222C567.398 199.222 570.112 199.674 572.657 200.582C575.202 201.491 577.719 202.847 580.207 204.66L581.736 200.413H583.772L584.704 218.76H581.397C580.038 214.117 577.92 210.564 575.033 208.101C572.149 205.638 568.809 204.406 565.022 204.406C561.513 204.406 558.674 205.27 556.496 206.998C554.318 208.726 553.229 210.947 553.229 213.665C553.229 214.856 553.427 215.914 553.822 216.85C554.217 217.783 554.951 218.676 556.028 219.527C557.101 220.375 558.573 221.24 560.441 222.12C562.308 223 564.712 223.973 567.652 225.051C571.608 226.581 574.992 228.124 577.791 229.678C580.59 231.237 582.881 232.905 584.664 234.689C586.446 236.474 587.761 238.356 588.608 240.338C589.455 242.321 589.883 244.501 589.883 246.879C589.883 249.766 589.262 252.399 588.015 254.777C586.769 257.155 585.031 259.195 582.796 260.894C580.562 262.594 577.904 263.923 574.823 264.888C571.741 265.849 568.333 266.333 564.599 266.333C561.207 266.333 558.15 265.865 555.435 264.932C552.721 263.999 549.922 262.485 547.034 260.39L545.336 265.485H543.3L542.025 243.827L542.041 243.803Z" fill="#FC9700"/>
</g>
<defs>
<clipPath id="clip0_1_209">
<rect width="737" height="266" fill="white" transform="translate(0.492371 0.309082)"/>
</clipPath>
</defs>
</svg>
